<?xml version="1.0" ?><svg id="Layer_1" style="enable-background:new 0 0 1024 1024;" version="1.1" viewBox="0 0 1024 1024" xml:space="preserve" xmlns="http://www.w3.org/2000/svg" xmlns:xlink="http://www.w3.org/1999/xlink"><g id="_x32_0"><path d="M705.6,778.1H181.7c-5.5,0-10-4.5-10-10V406.6c0-72.6,28.3-140.9,79.7-192.3   c51.4-51.4,119.7-79.7,192.3-79.7c72.6,0,140.9,28.3,192.3,79.7c33.7,33.7,58,75.6,70.3,121.3c1.4,5.2-1.5,10.5-6.6,12.1   c-18.7,5.9-35.2,16.1-49.2,30c-47.7,47.7-47.7,125.4,0,173.1c15.9,15.9,35.8,27.1,57.6,32.4c4.5,1.1,7.6,5.1,7.6,9.7v175.1   C715.6,773.6,711.1,778.1,705.6,778.1z M191.7,758.1h503.9V600.7c-22.3-6.8-42.7-19-59.3-35.6c-55.5-55.5-55.5-145.9,0-201.4   c13.7-13.7,30.2-24.5,48.1-31.7c-12.1-38.9-33.6-74.5-62.6-103.5c-47.6-47.6-110.9-73.8-178.2-73.8c-138.9,0-252,113-252,252V758.1   z" id="XMLID_22_"/><path d="M771.4,889.3H115.8c-5.5,0-10-4.5-10-10v-63.8c0-31.7,25.8-57.4,57.4-57.4H724c31.7,0,57.4,25.8,57.4,57.4   v63.8C781.4,884.8,777,889.3,771.4,889.3z M125.8,869.3h635.6v-53.8c0-20.6-16.8-37.4-37.4-37.4H163.2c-20.6,0-37.4,16.8-37.4,37.4   V869.3z" id="XMLID_19_"/><path d="M736.9,606.8c-11.3,0-22.7-1.3-33.7-4c-25.3-6.1-48.5-19.2-67-37.7c-55.5-55.5-55.5-145.9,0-201.4   c16-16,35.8-28.1,57.3-35c51-16.3,106.2-2.9,144.1,35c55.5,55.5,55.5,145.9,0,201.4l0,0c-17.6,17.6-39.5,30.3-63.4,36.8   C762.1,605.1,749.5,606.8,736.9,606.8z M737.1,341.9c-12.5,0-25.1,1.9-37.5,5.9c-18.7,5.9-35.2,16.1-49.2,30   c-47.7,47.7-47.7,125.4,0,173.1c15.9,15.9,35.8,27.1,57.6,32.4c41.9,10.2,85.1-1.9,115.5-32.4l0,0c47.7-47.7,47.7-125.4,0-173.1   C800.1,354.4,769,341.9,737.1,341.9z" id="XMLID_16_"/><path d="M901.5,537.6c-36.7,0-59.5-40.1-60.5-42l17.5-9.7c0.2,0.4,21,36.7,49.3,31.1l3.9,19.6   C908.2,537.3,904.8,537.6,901.5,537.6z" id="XMLID_15_"/><path d="M753.9,384.2l-9.9-17.4l5,8.7l-5-8.7c0.2-0.1,16.1-9.3,30-23.3c16.8-16.9,23-32.6,18.3-46.5l19-6.3   C828,341.2,756.9,382.5,753.9,384.2z" id="XMLID_14_"/><path d="M663.6,361.9c-2.4-1.9-23.8-18.9-23.6-41.3c0.1-8.5,3.4-20.9,18.9-32.3l11.8,16.1   c-7.2,5.3-10.7,10.6-10.8,16.3c-0.1,10.7,11.3,21.9,15.7,25.3L663.6,361.9z" id="XMLID_13_"/><path d="M702.7,493.5l-13.2-15.1c7.6-6.7,11.1-13.2,10.5-20.1c-1-13.8-17.9-27.5-23.7-31.2l10.7-16.9   c3.2,2,30.9,20.4,32.9,46.5C721,470.2,715.2,482.5,702.7,493.5z" id="XMLID_12_"/><path d="M836.3,441.4L820,429.7c0.8-1.1,18.9-26.1,47.8-30.1c17.2-2.4,34.2,3,50.6,16.1l-12.5,15.6   c-11.9-9.5-23.8-13.5-35.3-11.9C850.4,422.3,836.4,441.2,836.3,441.4z" id="XMLID_11_"/><path d="M558.3,464.6l-17.3-10c7.6-13.1,18.5-21.4,32.4-24.9c33-8.1,71.2,15.6,72.8,16.6l-10.6,16.9   c-0.3-0.2-32.8-20.3-57.5-14.1C569.6,451.2,563.1,456.3,558.3,464.6z" id="XMLID_10_"/><path d="M602.5,596.5l-4.8-19.4c30.6-7.7,35.6-57.8,35.7-58.3l19.9,1.7C653.1,523,647.4,585.3,602.5,596.5z" id="XMLID_9_"/><path d="M722.7,651.5c-24.8-24.8-29.5-49.7-29-66.2c0.5-17.8,6.9-29.7,7.6-31l8.7,4.9l8.8,4.8   c-0.8,1.5-19,36.4,18.1,73.4L722.7,651.5z" id="XMLID_8_"/><path d="M823.7,624l-19.8-2.5c3.9-31-7.6-40.8-8.1-41.2c0.2,0.1,0.2,0.2,0.2,0.2l11.6-16.3   C809.8,565.8,829.1,581,823.7,624z" id="XMLID_7_"/><path d="M771.8,529.1c-1.5-1.1-15.1-11-16.5-26.4c-0.5-6.2,0.8-15.6,10.3-25.1c13.5-13.5,5.1-26.8,4.7-27.4   l16.8-10.9c6.1,9.5,12.5,32.6-7.4,52.4c-4.9,4.9-4.6,8.1-4.5,9.2c0.4,5.2,6.1,10.4,8.1,11.8L771.8,529.1z" id="XMLID_6_"/><rect height="191.8" id="XMLID_5_" width="20" x="433.6" y="303.6"/><rect height="20" id="XMLID_4_" width="132.7" x="377.3" y="358.1"/><rect height="20" id="XMLID_3_" width="210.7" x="338.3" y="587.5"/><rect height="20" id="XMLID_2_" width="121.9" x="382.7" y="650"/></g></svg>