<?xml version="1.0" standalone="no"?>
<!DOCTYPE svg PUBLIC "-//W3C//DTD SVG 20010904//EN"
 "http://www.w3.org/TR/2001/REC-SVG-20010904/DTD/svg10.dtd">
<svg version="1.0" xmlns="http://www.w3.org/2000/svg"
 width="512.000000pt" height="512.000000pt" viewBox="0 0 512.000000 512.000000"
 preserveAspectRatio="xMidYMid meet">
<metadata>
Created by potrace 1.11, written by Peter Selinger 2001-2013
</metadata>
<g transform="translate(0.000000,512.000000) scale(0.100000,-0.100000)"
fill="#000000" stroke="none">
<path d="M2474 5100 c-52 -23 -111 -83 -135 -137 -15 -35 -18 -74 -20 -225 -1
-101 -9 -226 -16 -278 -15 -100 -59 -294 -74 -321 -5 -10 -32 -22 -61 -29
-120 -28 -311 -109 -439 -186 -38 -23 -63 -32 -75 -27 -30 11 -203 112 -267
155 l-59 40 -27 -26 -27 -26 -68 56 c-37 30 -66 58 -64 62 34 67 37 56 -35
127 -52 52 -69 77 -81 118 -33 107 -137 205 -244 228 -183 39 -369 -108 -380
-301 -8 -131 99 -275 235 -316 41 -12 67 -30 126 -90 41 -41 85 -88 98 -105
13 -16 34 -42 47 -57 42 -49 169 -246 213 -329 49 -94 52 -70 -25 -238 -25
-55 -57 -143 -72 -195 -27 -97 -34 -112 -56 -116 -7 -1 -47 -11 -88 -23 -163
-44 -287 -59 -535 -62 -165 -2 -203 -11 -260 -66 -58 -54 -80 -101 -80 -173 1
-92 40 -155 128 -209 42 -26 66 -28 322 -35 94 -3 186 -8 205 -11 102 -18 241
-49 284 -64 l50 -16 36 -120 c35 -115 84 -237 121 -299 17 -28 17 -30 -28
-115 -97 -183 -227 -362 -358 -494 -43 -43 -89 -80 -104 -83 -93 -22 -188
-100 -232 -189 -34 -71 -34 -179 1 -250 31 -64 101 -134 165 -165 71 -35 179
-35 250 0 90 44 167 138 189 232 18 76 342 338 568 457 l64 35 62 -38 c129
-78 324 -159 466 -192 34 -8 46 -33 75 -164 37 -164 47 -259 50 -445 3 -199 5
-215 34 -265 97 -166 304 -170 408 -9 35 55 36 64 43 334 3 94 8 186 11 205
19 107 48 238 63 283 15 45 21 53 52 61 159 41 334 114 462 192 l59 36 52 -27
c29 -15 71 -38 94 -52 l42 -24 22 30 c25 34 19 35 122 -37 40 -29 46 -37 35
-49 -24 -29 -18 -50 20 -79 48 -36 99 -83 178 -162 48 -49 67 -76 79 -115 28
-96 116 -187 214 -222 59 -20 156 -14 216 15 101 49 181 157 192 260 15 141
-91 293 -235 336 -52 15 -76 35 -193 161 -115 123 -329 453 -329 507 0 8 15
46 34 83 46 94 81 184 106 278 12 44 25 84 30 88 8 9 160 52 218 62 20 4 48 9
62 11 86 15 185 22 330 23 178 2 222 9 266 43 134 103 150 253 37 363 -72 70
-75 71 -378 80 -192 5 -206 7 -365 42 -176 38 -172 36 -199 134 -27 99 -60
186 -111 290 l-38 76 45 84 c99 184 233 366 367 501 53 54 79 71 119 83 98 29
187 115 221 215 76 220 -158 463 -382 397 -68 -21 -135 -68 -177 -125 -30 -41
-61 -114 -57 -133 1 -7 -100 -111 -164 -169 -102 -92 -274 -209 -401 -275
l-73 -37 -32 21 c-111 71 -385 187 -485 206 -15 2 -31 9 -36 14 -9 9 -53 167
-63 226 -2 17 -10 66 -17 110 -8 44 -14 161 -16 260 -3 226 -8 248 -68 311
-72 76 -173 101 -259 64z"/>
</g>
</svg>
